<svg xmlns="http://www.w3.org/2000/svg" viewBox="0 0 1600 1100" role="img" aria-labelledby="title desc">
  <title id="title">Kamakura sea train placeholder</title>
  <desc id="desc">A stylized seaside rail scene in blue, amber, and coral.</desc>
  <defs>
    <linearGradient id="sky" x1="0" x2="1" y1="0" y2="1">
      <stop offset="0" stop-color="#1d5f89"/>
      <stop offset="0.48" stop-color="#74bdd3"/>
      <stop offset="1" stop-color="#f0b968"/>
    </linearGradient>
    <linearGradient id="sea" x1="0" x2="1">
      <stop offset="0" stop-color="#0e405c"/>
      <stop offset="1" stop-color="#6fd1d5"/>
    </linearGradient>
  </defs>
  <rect width="1600" height="1100" fill="url(#sky)"/>
  <circle cx="1240" cy="250" r="140" fill="#f6dd73" opacity=".9"/>
  <path d="M0 600 C260 530 440 690 710 620 C960 555 1220 610 1600 540 L1600 1100 L0 1100Z" fill="url(#sea)"/>
  <path d="M0 745 L1600 560 L1600 670 L0 855Z" fill="#21140e" opacity=".86"/>
  <path d="M0 805 L1600 620" stroke="#f7efe3" stroke-width="10" opacity=".7"/>
  <g transform="translate(450 520) rotate(-7)">
    <rect x="0" y="0" width="620" height="210" rx="22" fill="#e8482b"/>
    <rect x="44" y="38" width="120" height="78" rx="8" fill="#b7e4f0"/>
    <rect x="190" y="38" width="120" height="78" rx="8" fill="#b7e4f0"/>
    <rect x="336" y="38" width="120" height="78" rx="8" fill="#b7e4f0"/>
    <rect x="482" y="38" width="86" height="132" rx="8" fill="#2a1b18"/>
    <circle cx="120" cy="212" r="36" fill="#17120e"/>
    <circle cx="492" cy="212" r="36" fill="#17120e"/>
  </g>
  <path d="M0 980 C260 900 450 970 720 910 C1050 835 1250 930 1600 860 L1600 1100 L0 1100Z" fill="#f7efe3"/>
</svg>
