<svg xmlns="http://www.w3.org/2000/svg" viewBox="0 0 1600 1100" role="img" aria-labelledby="title desc">
  <title id="title">Sapporo snow placeholder</title>
  <desc id="desc">A quiet snowy street with lamps and deep blue shadows.</desc>
  <defs>
    <linearGradient id="night" x1="0" x2="1" y1="0" y2="1">
      <stop offset="0" stop-color="#081926"/>
      <stop offset=".55" stop-color="#24465b"/>
      <stop offset="1" stop-color="#dfeef1"/>
    </linearGradient>
  </defs>
  <rect width="1600" height="1100" fill="url(#night)"/>
  <path d="M0 640 C330 560 500 740 850 640 C1120 560 1320 640 1600 590 L1600 1100 L0 1100Z" fill="#f7efe3"/>
  <path d="M260 0 L330 740" stroke="#f7efe3" stroke-width="20" opacity=".22"/>
  <path d="M1220 0 L1060 760" stroke="#f7efe3" stroke-width="24" opacity=".18"/>
  <g fill="#f6dd73">
    <circle cx="350" cy="270" r="44" opacity=".95"/>
    <circle cx="980" cy="320" r="32" opacity=".8"/>
    <circle cx="1240" cy="210" r="56" opacity=".85"/>
  </g>
  <g fill="#fff9ee" opacity=".78">
    <circle cx="160" cy="120" r="6"/>
    <circle cx="460" cy="190" r="5"/>
    <circle cx="760" cy="120" r="8"/>
    <circle cx="1120" cy="150" r="6"/>
    <circle cx="1390" cy="260" r="5"/>
    <circle cx="610" cy="360" r="6"/>
    <circle cx="880" cy="520" r="7"/>
  </g>
  <path d="M130 930 C420 800 650 860 940 760 C1130 694 1320 680 1510 610" fill="none" stroke="#24465b" stroke-width="22" opacity=".25"/>
</svg>
